# xmcd CD database file
#
# Track frame offsets:
#	150
#	72444
#	90376
#	166525
#	245260
#
# Disc length: 4303 seconds
#
# Revision: 0
# Processed by: cddbd v1.4PL0 Copyright (c) Steve Scherf et al.
# Submitted via: CDex 1.50beta10
#
DISCID=3010cd05
DTITLE=Mata Mandir Singh and friends - The Yoga of Sound - Relaxation
DYEAR=1999
DGENRE=New Age
TTITLE0=Sochai Soch Na Hovaee
TTITLE1=Interlude 4th ether
TTITLE2=Guru Ram Das Chant (Classic)
TTITLE3=Nam Kee Badaee Dae
TTITLE4=Jojo Deesai
EXTD=YEAR: 1999
EXTT0=
EXTT1=
EXTT2=
EXTT3=
EXTT4=
PLAYORDER=
